<svg width="150" height="150" viewBox="0 0 150 150" fill="none" xmlns="http://www.w3.org/2000/svg">
<path fill-rule="evenodd" clip-rule="evenodd" d="M15.1739 45.0989C12.3258 56.2109 6.94037 82.3112 8.18317 97.8163C9.73666 117.198 12.0669 145.882 39.253 146.658C61.0019 147.278 95.9555 146.916 110.714 146.658C119.517 146.141 137.9 140.766 141.007 123.4C144.114 106.034 139.194 63.4466 136.346 45.0989H118.481C117.704 31.6611 107.917 4.63043 74.9833 4.01022C42.0493 3.39002 33.8158 31.1442 33.8158 45.0989H15.1739ZM76 22C57.875 22 51.7812 37.3333 51 45H101C100.219 37.3333 94.125 22 76 22ZM52 67C52 72.5229 47.5228 77 42 77C36.4772 77 32 72.5229 32 67C32 61.4772 36.4772 57 42 57C47.5228 57 52 61.4772 52 67ZM108 77C113.523 77 118 72.5229 118 67C118 61.4772 113.523 57 108 57C102.477 57 98 61.4772 98 67C98 72.5229 102.477 77 108 77Z" fill="white"/>
</svg>
