<svg width="150" height="150" viewBox="0 0 150 150" fill="none" xmlns="http://www.w3.org/2000/svg">
<path fill-rule="evenodd" clip-rule="evenodd" d="M3 31V88.8983C3 105.467 16.4315 118.898 33 118.898H50.5645L69.9272 142.181C72.8198 145.659 78.2025 145.521 80.9132 141.899L98.129 118.898H116.945C133.514 118.898 146.945 105.467 146.945 88.8983V31C146.945 14.4315 133.514 1 116.945 1H74.9726H33C16.4315 1 3 14.4315 3 31ZM32 40.5C32 36.9102 34.9102 34 38.5 34H111.5C115.09 34 118 36.9102 118 40.5C118 44.0898 115.09 47 111.5 47H38.5C34.9102 47 32 44.0898 32 40.5ZM38.5 62C34.9102 62 32 64.9102 32 68.5C32 72.0898 34.9102 75 38.5 75H74.5C78.0898 75 81 72.0898 81 68.5C81 64.9102 78.0898 62 74.5 62H38.5Z" fill="white"/>
</svg>
