<svg width="150" height="150" viewBox="0 0 150 150" fill="none" xmlns="http://www.w3.org/2000/svg">
<path d="M81.2624 64.6885C80.9398 53.0764 60.4304 51.7861 50.2161 52.5925C48.4689 52.8613 43.4133 52.318 37.3137 52.9957C30.0562 53.8021 31.6689 53.3989 20.7826 55.0117C9.89618 56.6245 5.05779 62.2693 4.65459 65.0917C4.25139 67.9141 8.28338 71.1397 7.47691 73.5589C6.67044 75.9781 1.42892 80.4133 1.02572 83.2357C0.62252 86.0581 5.05771 89.2837 7.47691 89.2837C9.89611 89.2837 10.7025 89.2837 13.9281 87.2677C17.1537 85.2517 20.7825 84.0421 26.8305 84.0421C32.8785 84.0421 41.3457 86.8645 47.3937 92.5093C52.2321 97.0251 55.3232 105.949 56.264 109.847V124.362H95.3744C95.24 122.749 95.1325 118.233 95.7776 113.072C96.584 106.621 94.9712 107.428 102.632 94.9285C110.293 82.4293 125.614 84.0421 129.243 84.0421C132.872 84.0421 136.904 82.4293 137.307 76.7845C137.71 71.1397 134.485 65.4949 127.63 53.8021C122.147 44.4479 111.906 35.927 107.47 32.8358L111.906 31.223C111.637 27.9974 110.454 20.6591 107.874 17.111C104.648 12.6758 100.616 11.4662 96.584 11.063C93.3584 10.7404 90.4016 11.735 89.3264 12.2726V22.7558C85.832 22.6214 78.8432 23.2396 78.8432 26.7878C78.8432 30.3359 88.52 30.6854 93.3584 30.4166C95.6432 37.8086 100.213 56.3826 100.213 71.5429C100.213 90.4933 92.1488 102.589 82.0688 102.589C71.9888 102.589 69.5696 97.7509 67.1504 87.2677C64.7312 76.7845 81.6656 79.2037 81.2624 64.6885Z" fill="white"/>
<circle cx="26.0241" cy="115.895" r="22.176" fill="white"/>
<circle cx="126.824" cy="117.508" r="22.176" fill="white"/>
</svg>
