<svg width="150" height="150" viewBox="0 0 150 150" fill="none" xmlns="http://www.w3.org/2000/svg">
<path fill-rule="evenodd" clip-rule="evenodd" d="M80.0309 3.39165C76.9902 1.34172 73.0098 1.34172 69.9691 3.39165L58.9875 10.795C57.4451 11.8348 55.6184 12.3711 53.7588 12.3303L40.5179 12.0393C36.8516 11.9587 33.5031 14.1107 32.0533 17.4792L26.8175 29.6443C26.0822 31.3529 24.8355 32.7917 23.2489 33.7628L11.9527 40.6765C8.82483 42.5909 7.1713 46.2116 7.77283 49.8291L9.94522 62.8938C10.2503 64.7287 9.9794 66.6131 9.16968 68.2878L3.40454 80.2112C1.80823 83.5127 2.3747 87.4526 4.83649 90.1707L13.7273 99.9869C14.976 101.366 15.7669 103.097 15.9911 104.944L17.5875 118.091C18.0295 121.732 20.6361 124.74 24.1766 125.696L36.9631 129.147C38.7589 129.632 40.3605 130.661 41.5474 132.093L49.9984 142.29C52.3385 145.114 56.1577 146.235 59.6527 145.125L72.2753 141.116C74.0481 140.552 75.9519 140.552 77.7247 141.116L90.3473 145.125C93.8423 146.235 97.6615 145.114 100.002 142.29L108.453 132.093C109.639 130.661 111.241 129.632 113.037 129.147L125.823 125.696C129.364 124.74 131.971 121.732 132.413 118.091L134.009 104.944C134.233 103.097 135.024 101.366 136.273 99.9869L145.164 90.1707C147.625 87.4526 148.192 83.5127 146.595 80.2112L140.83 68.2878C140.021 66.6131 139.75 64.7287 140.055 62.8938L142.227 49.8291C142.829 46.2116 141.175 42.5909 138.047 40.6765L126.751 33.7628C125.165 32.7917 123.918 31.3529 123.182 29.6443L117.947 17.4792C116.497 14.1107 113.148 11.9587 109.482 12.0393L96.2412 12.3303C94.3816 12.3711 92.5549 11.8348 91.0125 10.795L80.0309 3.39165ZM50.5 59C54.6422 59 58 55.6422 58 51.5C58 47.3578 54.6422 44 50.5 44C46.3579 44 43 47.3578 43 51.5C43 55.6422 46.3579 59 50.5 59ZM106 99.5C106 103.642 102.642 107 98.5 107C94.3579 107 91 103.642 91 99.5C91 95.3578 94.3579 92 98.5 92C102.642 92 106 95.3578 106 99.5ZM103.577 46.3033C100.648 43.3744 95.8994 43.3744 92.9705 46.3033L45.3033 93.9705C42.3744 96.8994 42.3744 101.648 45.3033 104.577C48.2322 107.506 52.981 107.506 55.9099 104.577L103.577 56.9099C106.506 53.981 106.506 49.2322 103.577 46.3033Z" fill="white"/>
</svg>
