<svg width="150" height="150" viewBox="0 0 150 150" fill="none" xmlns="http://www.w3.org/2000/svg">
<path d="M67.3086 7.21329L4.30983 71.4165C2.84705 72.9072 2.12634 74.9733 2.34452 77.0504L5.68067 108.811L6.89111 120.335C8.33995 134.128 19.0549 145.131 32.8051 146.944L55.9832 150L55.1266 121.597C54.7836 110.225 63.9093 100.82 75.2867 100.82C86.8253 100.82 96.0121 110.482 95.4303 122.006L94.0168 150L118.618 146.918C132.839 145.137 143.814 133.544 144.815 119.247L147.777 76.9487C147.919 74.9296 147.179 72.948 145.75 71.5153L81.5249 7.15356C77.5947 3.21501 71.2055 3.24185 67.3086 7.21329Z" fill="white"/>
</svg>
