<svg width="150" height="150" viewBox="0 0 150 150" fill="none" xmlns="http://www.w3.org/2000/svg">
<path d="M43.3449 126.859C42.7404 137.136 38.0553 138.194 35.7884 138.194H32.7657C27.9296 137.589 27.2243 131.393 27.4762 128.37V103.434C24.4536 101.167 16.5949 94.8193 9.34065 87.565C2.0864 80.3108 0.776608 64.3918 1.02849 57.339C1.28037 45.7524 2.38866 21.9746 4.80674 19.5565C7.82935 16.5339 12.3632 15.7782 16.1415 19.5565C19.9198 23.3348 16.1415 39.9591 16.1415 49.7825C16.1415 59.606 17.6528 59.606 22.9424 60.3616C27.174 60.9662 28.2319 56.5834 28.2319 54.3164V31.6469C28.2319 21.0678 28.2319 13.5113 35.7884 12.7557C41.8336 12.1511 43.3449 19.5565 43.3449 23.3348V48.2712C43.3449 60.3616 46.3675 60.3616 50.1458 60.3616C53.1684 60.3616 53.924 57.339 53.924 55.8277C53.6721 49.5306 53.0172 36.1808 52.4127 33.1582C51.6571 29.38 51.6571 18.0452 59.2136 17.2896C65.2588 16.685 67.7776 25.0979 68.2814 29.38C68.7852 32.9063 69.7927 42.8305 69.7927 54.3164C69.7927 68.6738 68.2814 78.4973 62.9918 86.8094C58.7602 93.4591 49.1382 101.167 44.8562 104.189C44.6043 107.464 43.9494 116.582 43.3449 126.859Z" fill="white"/>
<path d="M126.466 127.615C126.466 135.473 120.421 137.438 117.399 137.438H112.865C108.633 136.229 107.575 130.385 107.575 127.615V101.167L99.263 93.6103C88.6839 84.5424 84.9056 74.719 84.9056 63.3842C84.9056 52.0495 89.4395 37.6921 94.7291 29.38C100.019 21.0678 106.82 12 116.643 12C126.466 12 132.512 17.2896 138.557 27.113C144.602 36.9365 148.38 47.5156 148.38 66.4068C148.38 81.5199 134.275 95.8772 127.222 101.167C126.97 106.708 126.466 119.756 126.466 127.615Z" fill="white"/>
</svg>
