<svg width="150" height="150" viewBox="0 0 150 150" fill="none" xmlns="http://www.w3.org/2000/svg">
<path fill-rule="evenodd" clip-rule="evenodd" d="M15.7686 103.594C17.2489 97.0387 23.7625 83.927 37.9738 83.927C52.1852 83.927 57.8528 99.9994 58.9102 108.036H90.632C90.8434 99.9994 95.3268 83.927 111.568 83.927C127.81 83.927 133.139 97.4616 133.774 104.229C138.849 103.172 149 98.1384 149 86.4647C149 71.8727 143.29 66.7972 130.601 65.5284C120.45 64.5133 116.221 64.2595 115.375 64.2595L102.052 42.6887C99.7255 38.8821 92.1546 31.0151 80.481 30H55.1036C50.0281 30 38.3545 31.3958 32.2639 36.9788C26.1733 42.5618 18.3063 57.0692 15.1341 63.6251C11.3275 64.048 3.33365 66.6704 1.811 73.776C-0.0923053 82.6581 1.17657 99.1535 7.52092 101.691C12.5964 103.721 15.1341 103.806 15.7686 103.594ZM29.7262 61.7218H59.5446V40.7854H47.4904C45.3756 40.9969 40.3847 42.5618 37.3394 47.1298C34.2941 51.6977 30.995 58.7611 29.7262 61.7218ZM70.9645 40.7854V61.7218H100.148C99.3026 58.7611 96.7225 51.8246 93.1697 47.7642C88.7287 42.6887 83.0187 40.7854 77.9433 40.7854H70.9645Z" fill="white"/>
<circle cx="37.9738" cy="106.132" r="13.9576" fill="white"/>
<circle cx="111.568" cy="106.132" r="13.9576" fill="white"/>
</svg>
